<svg xmlns="http://www.w3.org/2000/svg" width="32" height="32" viewBox="0 0 32 32" preserveAspectRatio="none" id="svgid4" repair="1" xmlns:xlink="http://www.w3.org/1999/xlink"><path id="MTBteHk4NjUxMDAwMDAwMDAwMHh6czgwMA" fill="rgb(255,216,120)" d="M27.5 13.44V25.5h-8V19c0-1.93-1.57-3.5-3.5-3.5s-3.5 1.57-3.5 3.5v6.5h-8V13.44L16 6.05l11.5 7.39z" class="stshockcolor" data-st="fill:#FFD878;" coriginal="rgb(255,216,120)" colortype="4" awdzp="4"></path><path fill="rgb(255,255,255)" d="M27.5 13.44V23h-23v-9.56L16 6.05" opacity=".3" coriginal="rgb(255,255,255)" colortype="0" awdzp="0"></path><path fill="rgb(239,101,101)" d="M12.5 25.5V19c0-1.93 1.57-3.5 3.5-3.5s3.5 1.57 3.5 3.5v6.5h-7z" coriginal="rgb(239,101,101)" colortype="11" awdzp="11"></path><path fill="rgb(77,81,82)" d="M16 5.46l-14 9v1.5l2-1.29V26h24V14.67l2 1.29v-1.5l-14-9zM19 25h-6v-6c0-1.66 1.34-3 3-3s3 1.34 3 3v6zm8 0h-7v-6c0-2.21-1.79-4-4-4s-4 1.79-4 4v6H5V14.03l11-7.07 11 7.07V25z" coriginal="rgb(77,81,82)" colortype="14" awdzp="14"></path></svg>